<svg viewBox="0 0 600 440" xmlns="http://www.w3.org/2000/svg" font-family="Arial, Helvetica, sans-serif">
  <rect width="600" height="440" fill="white" rx="4"/>

  <!-- Edges -->
  <g stroke="#ccc" stroke-width="1.5" stroke-linecap="round">
    <!-- Worker–Firm -->
    <line x1="120" y1="80" x2="200" y2="220"/>
    <line x1="120" y1="80" x2="400" y2="220"/>
    <line x1="300" y1="80" x2="200" y2="220"/>
    <line x1="480" y1="80" x2="400" y2="220"/>
    <!-- Worker–Year -->
    <line x1="120" y1="80" x2="200" y2="360"/>
    <line x1="120" y1="80" x2="400" y2="360"/>
    <line x1="300" y1="80" x2="200" y2="360"/>
    <line x1="300" y1="80" x2="400" y2="360"/>
    <line x1="480" y1="80" x2="200" y2="360"/>
    <line x1="480" y1="80" x2="400" y2="360"/>
    <!-- Firm–Year -->
    <line x1="200" y1="220" x2="200" y2="360"/>
    <line x1="200" y1="220" x2="400" y2="360"/>
    <line x1="400" y1="220" x2="200" y2="360"/>
    <line x1="400" y1="220" x2="400" y2="360"/>
  </g>

  <!-- Nodes -->
  <circle cx="120" cy="80" r="24" fill="#f9f" stroke="#555" stroke-width="2"/>
  <text x="120" y="86" text-anchor="middle" font-size="14" font-weight="bold" fill="#333">W1</text>
  <circle cx="300" cy="80" r="24" fill="#f9f" stroke="#555" stroke-width="2"/>
  <text x="300" y="86" text-anchor="middle" font-size="14" font-weight="bold" fill="#333">W2</text>
  <circle cx="480" cy="80" r="24" fill="#f9f" stroke="#555" stroke-width="2"/>
  <text x="480" y="86" text-anchor="middle" font-size="14" font-weight="bold" fill="#333">W3</text>

  <circle cx="200" cy="220" r="24" fill="#bbf" stroke="#555" stroke-width="2"/>
  <text x="200" y="226" text-anchor="middle" font-size="14" font-weight="bold" fill="#333">F1</text>
  <circle cx="400" cy="220" r="24" fill="#bbf" stroke="#555" stroke-width="2"/>
  <text x="400" y="226" text-anchor="middle" font-size="14" font-weight="bold" fill="#333">F2</text>

  <circle cx="200" cy="360" r="24" fill="#ffa" stroke="#555" stroke-width="2"/>
  <text x="200" y="366" text-anchor="middle" font-size="14" font-weight="bold" fill="#333">Y1</text>
  <circle cx="400" cy="360" r="24" fill="#ffa" stroke="#555" stroke-width="2"/>
  <text x="400" y="366" text-anchor="middle" font-size="14" font-weight="bold" fill="#333">Y2</text>

  <!-- Legend -->
  <circle cx="190" cy="425" r="7" fill="#f9f" stroke="#555" stroke-width="1"/>
  <text x="203" y="429" font-size="11" fill="#666">Workers</text>
  <circle cx="275" cy="425" r="7" fill="#bbf" stroke="#555" stroke-width="1"/>
  <text x="288" y="429" font-size="11" fill="#666">Firms</text>
  <circle cx="340" cy="425" r="7" fill="#ffa" stroke="#555" stroke-width="1"/>
  <text x="353" y="429" font-size="11" fill="#666">Years</text>
</svg>
